<?xml version="1.0" encoding="UTF-8"?>
<svg width="252px" height="50px" viewBox="0 0 252 50" version="1.1" xmlns="http://www.w3.org/2000/svg" xmlns:xlink="http://www.w3.org/1999/xlink">
    <!-- Generator: Sketch 51.2 (57519) - http://www.bohemiancoding.com/sketch -->
    <title>logo</title>
    <desc>Created with Sketch.</desc>
    <defs></defs>
    <g id="Symbols" stroke="none" stroke-width="1" fill="none" fill-rule="evenodd">
        <g id="Top_Bar-Copy" transform="translate(-100.000000, -35.000000)">
            <g id="inner_topbar">
                <g id="logo" transform="translate(100.000000, 35.000000)">
                    <g id="black_logo" transform="translate(60.000000, 2.000000)" fill="#333333" font-family="CoolveticaRg-Regular, Coolvetica" font-size="40" font-weight="normal" letter-spacing="0.96">
                        <text id="KreisInvest">
                            <tspan x="0" y="37">KreisInvest</tspan>
                        </text>
                    </g>
                    <g id="Group-11" fill="#4DDB89">
                        <polygon id="Fill-1" points="13 28.3269886 15.9896552 30 16 26.6713417 13.0096552 25"></polygon>
                        <polygon id="Fill-2" points="19 31.3267677 21.9900092 33 22 29.6732323 19.0099908 28"></polygon>
                        <polygon id="Fill-3" points="19 45.3276599 21.9903537 47 22 43.6720064 19.0099908 42"></polygon>
                        <polygon id="Fill-4" points="19 38.326656 21.990008 40 22 36.6730101 19.0093029 35"></polygon>
                        <polygon id="Fill-5" points="13 35.3276564 15.9900034 37 16 33.6713417 13.0099966 32"></polygon>
                        <polygon id="Fill-6" points="7 24.3279904 9.99034483 26 10 22.6723436 7.01 21"></polygon>
                        <polygon id="Fill-7" points="13 38 13 41.3612449 16 43 15.9384218 39.6289861"></polygon>
                        <polygon id="Fill-8" points="7 31.3286583 9.99000115 33 10 29.6723436 7.00965406 28"></polygon>
                        <polygon id="Fill-9" points="7 38.3289939 9.98965517 40 10 36.6713399 7.00965517 35"></polygon>
                        <path d="M24,0 L0,13.7506967 L0,41.1159168 L5.43953554,37.9793411 L5.43953554,37.9789884 L5.49392023,18.2998074 L8.14419645,19.8209989 L24.0391001,28.9640234 L24.0582947,50 L31.7667027,45.5831822 L31.7507072,40.3087539 L34.8339282,38.5427324 L34.8492128,43.8164551 L42.5597536,39.3992846 L42.5551326,37.9980385 L48,41.1176807 L48,13.7506967 L24,0 Z M7.54241028,16.8368247 L23.9232216,7.38864469 L40.4085369,16.8357663 L39.1356507,17.569198 L23.9193116,8.85021625 L8.81103097,17.5639063 L7.54241028,16.8368247 Z M37.8791155,22.7092168 L40.9609147,20.9439008 L40.9715784,24.4586576 L37.8883574,26.2257375 L37.8791155,22.7092168 Z M31.7108962,26.2440821 L34.7937618,24.4777078 L34.8030036,27.9924646 L31.7208489,29.7595445 L31.7108962,26.2440821 Z M37.8993765,29.7404943 L40.9818866,27.9748255 L40.9918393,31.4931102 L37.9086183,33.258779 L37.8993765,29.7404943 Z M25.5433878,29.7789474 L28.6283861,28.0097509 L28.6383388,31.5252133 L25.5529851,33.2933515 L25.5433878,29.7789474 Z M31.7304462,33.2743013 L34.8143782,31.5086326 L34.8239755,35.0269172 L31.7414654,36.7936443 L31.7304462,33.2743013 Z M37.9189265,36.7749469 L41.0010812,35.007867 L41.0117448,38.5233294 L37.9292347,40.2897037 L37.9189265,36.7749469 Z M25.5636488,36.8091667 L28.6482916,35.0410284 L28.6582443,38.5589603 L25.573246,40.3270985 L25.5636488,36.8091667 Z M25.5835543,43.8432665 L28.668908,42.0758338 L28.6785053,45.5905906 L25.5938625,47.3583761 L25.5835543,43.8432665 Z" id="Fill-10"></path>
                    </g>
                </g>
            </g>
        </g>
    </g>
</svg>