<?xml version="1.0" encoding="UTF-8"?>
<svg width="62px" height="74px" viewBox="0 0 62 74" version="1.1" xmlns="http://www.w3.org/2000/svg" xmlns:xlink="http://www.w3.org/1999/xlink">
    <!-- Generator: Sketch 51.2 (57519) - http://www.bohemiancoding.com/sketch -->
    <title>Group 13</title>
    <desc>Created with Sketch.</desc>
    <defs>
        <linearGradient x1="0%" y1="3.28741776%" x2="96.9472164%" y2="97.0394737%" id="linearGradient-1">
            <stop stop-color="#54E490" offset="0%"></stop>
            <stop stop-color="#36BF70" offset="100%"></stop>
        </linearGradient>
    </defs>
    <g id="Page-1" stroke="none" stroke-width="1" fill="none" fill-rule="evenodd">
        <g id="Home_01" transform="translate(-497.000000, -3714.000000)" fill="url(#linearGradient-1)">
            <g id="Group-13" transform="translate(497.000000, 3714.000000)">
                <path d="M31,70.6757813 C12.3031927,59.8320352 3.34974898,50.4904023 3.10518766,16.1098867 C8.21205814,15.5981016 12.0840611,12.6288516 15.8398138,9.74863281 C20.1127346,6.47196484 24.531404,3.08328516 31,3.08328516 C37.468596,3.08328516 41.8869748,6.47182031 46.1601862,9.74863281 C49.9157936,12.6288516 53.7879419,15.597957 58.8948123,16.1098867 C58.650251,50.4904023 49.6968073,59.8320352 31,70.6757813 M60.4499491,13.1040703 C55.6121978,13.1040703 51.9405812,10.2878789 48.0530298,7.30692187 C43.5868431,3.88196484 38.5248743,0 31,0 C23.4751257,0 18.4130116,3.88196484 13.9468249,7.30692187 C10.0592735,10.2878789 6.38780217,13.1040703 1.55005086,13.1040703 C0.69430421,13.1040703 0,13.794207 0,14.6456406 C0,32.6462852 2.25394571,44.6322617 7.30835829,53.5092266 C12.3271693,62.3238984 19.7979872,67.8059687 30.2250472,73.7933203 C30.4648132,73.9310586 30.732334,74 31,74 C31.267666,74 31.5353321,73.9310586 31.7749528,73.7933203 C42.2021581,67.8059687 49.6728307,62.3238984 54.6919323,53.5092266 C59.7460543,44.6322617 62,32.6462852 62,14.6456406 C62,13.794207 61.3058411,13.1040703 60.4499491,13.1040703" id="Fill-1"></path>
                <path d="M12.8079026,17.7270001 C12.3790704,17.0619901 11.3717988,16.8068549 10.5577047,17.157028 C10.3509408,17.2459426 10.1408973,17.333454 9.93038536,17.4182865 C9.10504731,17.7500899 8.76538596,18.5658848 9.17157409,19.2400797 C9.46141844,19.7211372 10.0526634,20 10.6673334,20 C10.914232,20 11.1653472,19.9550962 11.4019389,19.8599308 C11.6399361,19.764255 11.8763716,19.6656453 12.1099962,19.5652495 C12.9239341,19.2148213 13.2364225,18.3920101 12.8079026,17.7270001" id="Fill-3"></path>
                <path d="M53.3421287,29.9932184 C53.3875014,29.997792 53.4325974,30 53.4774167,30 C54.231876,30 54.8756702,29.3436049 54.9451125,28.4698834 C54.9622656,28.2550804 54.978727,28.0393311 54.9946351,27.8246858 C55.0635242,26.8986041 54.4609527,26.084813 53.6488093,26.0062727 C52.8377725,25.9266284 52.122876,26.6147235 52.0541253,27.5406475 C52.0386322,27.7485112 52.0227241,27.9571634 52.0061244,28.1653426 C51.9325321,29.0906357 52.5306769,29.9091582 53.3421287,29.9932184" id="Fill-5"></path>
                <path d="M15.5218861,17 C15.8300294,17 16.1411658,16.9043782 16.4102567,16.7054092 C17.2910735,16.0551521 18.1489433,15.3874033 18.9781653,14.7410818 C22.8588898,11.7193761 26.2099841,9.10974769 30.4796647,9.10974769 C31.3192912,9.10974769 32,8.41357468 32,7.55487385 C32,6.69631877 31.3192912,6 30.4796647,6 C25.1840749,6 21.2749875,9.04400774 17.1362892,12.2670147 C16.32189,12.9013834 15.4796981,13.5570338 14.6305224,14.18426 C13.9495285,14.6870031 13.7964545,15.6588174 14.287745,16.3548447 C14.5850563,16.7762509 15.0501218,17 15.5218861,17" id="Fill-7"></path>
                <path d="M31.1285115,63.6383623 C27.1496559,61.1966342 22.343779,57.9178333 18.7405374,53.6895279 C18.1852059,53.0377137 17.2039745,52.9576333 16.5493829,53.5100723 C15.8943541,54.0628014 15.8136051,55.0394346 16.3689366,55.6913939 C20.5088529,60.5497525 26.0005132,64.1670093 30.3221876,66.7757167 C30.3300584,66.7800689 30.3385123,66.7835507 30.3465289,66.788048 C30.3838425,66.8095188 30.4220306,66.8282333 30.4609476,66.8466576 C30.4857262,66.8584085 30.5106505,66.8714651 30.5358663,66.8817653 C30.5708478,66.8961275 30.6062666,66.9071531 30.6422684,66.918904 C30.6721485,66.9289141 30.701737,66.9402298 30.7320543,66.9479187 C30.764558,66.9566231 30.7976446,66.9617007 30.8304398,66.9679388 C30.8636722,66.9746122 30.8967589,66.9828814 30.9301371,66.9870885 C30.9772164,66.9930365 31.0245872,66.9946323 31.0722495,66.9963732 C31.0904691,66.9970985 31.1085428,67 31.1269081,67 L31.1285115,67 L31.1301148,67 C31.1481886,67 31.1664081,66.9969535 31.1847734,66.9963732 C31.2325815,66.9946323 31.280098,66.9931816 31.3271773,66.9870885 C31.3604097,66.9828814 31.3927676,66.9746122 31.4255628,66.968374 C31.4590867,66.9619908 31.4924649,66.9569132 31.5254059,66.9479187 C31.5552859,66.9402298 31.5848744,66.9290592 31.614463,66.9191942 C31.650319,66.9074433 31.6861751,66.8964177 31.7214481,66.8817653 C31.7466639,66.8716102 31.7712968,66.8585536 31.7960753,66.8466576 C31.8349923,66.8282333 31.8734719,66.8095188 31.910494,66.788048 C31.9188021,66.7835507 31.9269645,66.7800689 31.9348353,66.7757167 C36.2566555,64.1671543 41.74817,60.5498975 45.8880863,55.6911037 C50.6086957,50.1491599 53.5843106,42.6494524 54.9845915,32.7635798 C55.1044031,31.9172223 54.5124868,31.1348422 53.6621445,31.0153018 C52.8109277,30.8961967 52.025447,31.4853392 51.9053438,32.3316967 C50.5896016,41.6208829 47.8457392,48.6073212 43.5163397,53.689673 C39.9133896,57.9178333 35.1080958,61.1966342 31.1285115,63.6383623" id="Fill-9"></path>
                <path d="M45.3549312,24.4471079 L25.7302562,44.3114035 C25.7270768,44.3149143 25.7233193,44.3182789 25.7201399,44.3216435 L25.5767781,44.4508138 C25.5751884,44.4519841 25.5735987,44.453447 25.5715754,44.4550561 L25.3883266,44.5862745 L25.1280497,44.723198 C25.1273271,44.7234906 25.12646,44.7239294 25.125882,44.724222 L24.9533275,44.7881489 C24.9514488,44.788734 24.9498591,44.7893192 24.9479803,44.7900506 L24.6817782,44.8530998 C24.6785988,44.8536849 24.6754194,44.8542701 24.671951,44.8548552 L24.5387054,44.8710929 C24.5353815,44.8716781 24.5320576,44.8719707 24.5290227,44.8722632 L24.4534398,44.8767981 C24.4502604,44.8767981 24.447081,44.8770907 24.4437571,44.8773832 L24.3671626,44.8788461 L24.318749,44.8781147 L24.2914351,44.8773832 C24.2882557,44.8770907 24.2847873,44.8767981 24.2816079,44.8767981 L24.2044353,44.8722632 C24.2016895,44.8719707 24.1987991,44.8716781 24.1956197,44.8710929 L24.0629522,44.8548552 C24.0590502,44.8542701 24.0554373,44.8533924 24.0515353,44.8528072 L23.7862003,44.7900506 C23.7859112,44.7900506 23.7853332,44.7896118 23.7850441,44.7896118 L23.6335893,44.7343157 L23.3439752,44.5849579 L23.0774841,44.3819132 L15.6449242,36.8625304 C14.8937197,36.1018442 14.8937197,34.8635349 15.6449242,34.1028487 C16.0062192,33.7371342 16.4903544,33.5356986 17.0083068,33.5356986 C17.5258257,33.5356986 18.009961,33.7371342 18.3712559,34.1025561 L23.2770634,39.0689591 C23.5660994,39.3619696 23.9581767,39.5262485 24.3668735,39.5262485 C24.7757149,39.5262485 25.1677922,39.3619696 25.4571172,39.069398 L42.628744,21.6880114 C42.9901834,21.3222969 43.4740296,21.1208613 43.991404,21.1208613 C44.5089229,21.1208613 44.9929136,21.3222969 45.3544976,21.688304 C46.1058466,22.4486976 46.1061357,23.6864218 45.3549312,24.4471079 M40.4485457,19.48129 L24.3671626,35.7590965 L20.5513097,31.8961273 C19.6074628,30.9410273 18.3492892,30.4149836 17.0083068,30.4149836 C15.6668909,30.4149836 14.4087174,30.9410273 13.4645814,31.8964199 C11.5117099,33.8743502 11.5117099,37.0920528 13.4651595,39.0695443 L20.835143,46.5286574 L20.8988755,46.5921454 C20.9082691,46.6015077 20.9179519,46.6104312 20.9273455,46.6197934 L20.9920896,46.6807946 C21.0035065,46.6913272 21.0149234,46.7020061 21.0267739,46.7123924 L21.0929631,46.7711993 C21.1032239,46.7804153 21.1134847,46.7891924 21.1240345,46.7981158 L21.1912354,46.8542896 C21.1987503,46.8610187 21.2066988,46.8671627 21.2143582,46.8735993 L21.2825707,46.9290416 C21.2952883,46.9391354 21.3078614,46.9490828 21.320868,46.9587377 L21.3909592,47.012132 C21.400931,47.0194463 21.4106137,47.0267605 21.4204409,47.0339286 L21.4909657,47.084836 C21.5013709,47.0922966 21.5120653,47.0997572 21.5224706,47.1069252 L21.5941515,47.1560772 C21.6055684,47.1636841 21.6169853,47.1712909 21.6285468,47.1787515 L21.7010948,47.2257092 C21.7110665,47.2318532 21.7207492,47.2381435 21.7305765,47.243995 L21.8041361,47.2891973 C21.8139633,47.295195 21.8236461,47.301339 21.8336178,47.3070441 L21.907611,47.3499059 C21.9220628,47.358683 21.9365146,47.3667288 21.9512554,47.3746282 L22.0264048,47.4151494 C22.0342088,47.4195379 22.0421572,47.4237802 22.0501057,47.4275837 L22.1259777,47.4670808 C22.1392733,47.4741025 22.152858,47.4808317 22.1662982,47.4874145 L22.2431818,47.5242786 C22.2538761,47.5295449 22.2648595,47.534226 22.2756983,47.5396386 L22.3148627,47.5571929 C22.3423211,47.5706512 22.3702131,47.5830855 22.3988276,47.5949346 L22.4771564,47.6272638 C22.4843823,47.6303358 22.4913191,47.6331152 22.498545,47.6358946 L22.5771628,47.6669072 C22.5888688,47.6717347 22.6010083,47.6764158 22.6130033,47.6809507 L22.6927772,47.7103541 C22.7054948,47.7147427 22.7183569,47.7194238 22.7313635,47.7236661 L22.7699498,47.7368318 C22.7961076,47.746633 22.8225544,47.7552639 22.8497237,47.7636021 L22.9299312,47.7883244 C22.9413481,47.791689 22.9527651,47.7953462 22.9643265,47.7982719 L23.0452566,47.8212387 C23.0563844,47.8243108 23.0675123,47.8273828 23.0789293,47.8304548 L23.1605819,47.8515199 C23.1714208,47.8542993 23.1825486,47.8569325 23.1936765,47.8597119 L23.2751847,47.8785828 C23.2866016,47.8815085 23.2983076,47.8839954 23.310158,47.8866285 L23.3918107,47.9035977 C23.4074186,47.9071085 23.4230266,47.9095954 23.438779,47.9128137 L23.4790995,47.9198354 C23.5032341,47.9246628 23.5275131,47.929344 23.5523702,47.9328548 L23.6346009,47.945728 C23.6468849,47.9479223 23.659169,47.9493851 23.671453,47.9511405 L23.7544063,47.9618194 C23.7661123,47.9632823 23.7781073,47.9648914 23.7898132,47.9660617 L23.8289776,47.9701577 C23.8548463,47.9736686 23.880715,47.9765943 23.9068728,47.9787886 L23.9904042,47.9859566 C24.0060121,47.9869806 24.0216201,47.9882971 24.0373725,47.9888823 L24.0765369,47.9912229 C24.1021166,47.9932709 24.1279853,47.9947337 24.153854,47.9953189 L24.2372409,47.9982446 C24.2457675,47.9985371 24.2537159,47.9985371 24.2622425,47.9988297 L24.3450513,48 L24.3674516,48 L24.3897074,48 L24.4730942,47.9988297 C24.4816208,47.9985371 24.4897138,47.9985371 24.4980959,47.9982446 L24.5817718,47.9953189 C24.6076405,47.9947337 24.6336537,47.9931246 24.6592334,47.9912229 L24.6983978,47.9888823 C24.7144393,47.9880046 24.7303362,47.9869806 24.7462332,47.985664 L24.829042,47.9786423 C24.8549108,47.976448 24.880635,47.9738148 24.9062146,47.970304 L24.9452345,47.966208 C24.9567959,47.9648914 24.9682128,47.9635748 24.9793407,47.9624045 L25.0627276,47.9512868 C25.0757342,47.949824 25.0887408,47.9479223 25.1013139,47.9458743 L25.1835446,47.9330011 C25.2088353,47.9291977 25.2339814,47.9245165 25.258694,47.9193965 L25.2981474,47.9123748 C25.3136108,47.9098879 25.3289297,47.9069622 25.3439596,47.9034514 L25.4251787,47.8864822 C25.435584,47.8841416 25.4462783,47.8822399 25.4568282,47.8797531 L25.5389144,47.8604433 C25.551921,47.8575176 25.5649276,47.8544456 25.5777897,47.8510811 L25.6587198,47.8298696 C25.6695586,47.8272365 25.6801084,47.8241645 25.6906582,47.8210925 L25.7712993,47.7982719 C25.7824272,47.7951999 25.7938441,47.7918353 25.8046829,47.7884707 L25.8850349,47.7637484 C25.9103256,47.7557027 25.9356162,47.747657 25.9601843,47.738441 L26.0000713,47.7252753 C26.014234,47.7205941 26.0283968,47.7156204 26.042415,47.7105004 L26.1221889,47.6810969 C26.1343285,47.6765621 26.1463234,47.6718809 26.1580294,47.6670535 L26.2366472,47.6360409 C26.2454628,47.6326763 26.2541339,47.6288729 26.2629495,47.6253621 L26.3405556,47.5930329 C26.3655572,47.5827929 26.3901253,47.5713826 26.4144043,47.5599723 L26.4544358,47.5419791 C26.4674424,47.5361277 26.4803045,47.5299837 26.4933111,47.5238397 L26.5697611,47.487122 C26.5798774,47.4822945 26.5902827,47.4770283 26.6005435,47.4719082 L26.6762709,47.4331425 C26.7006944,47.4205619 26.7249735,47.4076888 26.7485299,47.3937916 L26.7879833,47.3724339 C26.7992557,47.3662899 26.8103836,47.3598533 26.8212224,47.353563 L26.8957937,47.310555 C26.9077887,47.3036796 26.9196392,47.2966579 26.9313451,47.2893436 L27.0047603,47.2441413 C27.0161772,47.2372658 27.0275941,47.2298052 27.0391556,47.222491 L27.1115591,47.1755332 C27.1196521,47.1702669 27.1276006,47.1648543 27.135549,47.1592955 L27.207808,47.110436 C27.2202366,47.1019515 27.2325206,47.0934669 27.2445156,47.0846897 L27.3148959,47.0337823 C27.3270354,47.0250051 27.3390304,47.0163743 27.3507363,47.0071583 L27.4202495,46.9537639 C27.4286315,46.9470348 27.4370136,46.9405982 27.4455401,46.9340154 L27.5137526,46.8790119 C27.5318174,46.8648222 27.5495931,46.8497547 27.5672243,46.8346873 L27.6060996,46.8019193 C27.6195398,46.7908015 27.6331245,46.779245 27.6461311,46.7675421 L27.7120313,46.7082964 C27.7208469,46.7008358 27.7292289,46.6930826 27.737611,46.6851832 L27.8026441,46.624182 C27.8124713,46.6154049 27.8217204,46.6063352 27.8311141,46.5971191 L27.894991,46.5343625 C27.9090093,46.5206117 27.922594,46.5065682 27.9358896,46.4925248 L47.535563,26.6535367 C49.4887236,24.6756064 49.488001,21.4579038 47.5342624,19.4811438 C46.5907045,18.5260437 45.3325309,18 43.991404,18 C42.6507107,18 41.3923926,18.5260437 40.4485457,19.48129" id="Fill-11"></path>
            </g>
        </g>
    </g>
</svg>