<?xml version="1.0" encoding="UTF-8"?>
<svg width="86px" height="72px" viewBox="0 0 86 72" version="1.1" xmlns="http://www.w3.org/2000/svg" xmlns:xlink="http://www.w3.org/1999/xlink">
    <!-- Generator: Sketch 51.2 (57519) - http://www.bohemiancoding.com/sketch -->
    <title>Group</title>
    <desc>Created with Sketch.</desc>
    <defs>
        <linearGradient x1="0%" y1="3.28741776%" x2="96.9472164%" y2="97.0394737%" id="linearGradient-1">
            <stop stop-color="#54E490" offset="0%"></stop>
            <stop stop-color="#36BF70" offset="100%"></stop>
        </linearGradient>
        <polygon id="path-2" points="0.0100206368 0.0444248231 85.509267 0.0444248231 85.509267 70.8125 0.0100206368 70.8125"></polygon>
    </defs>
    <g id="Page-1" stroke="none" stroke-width="1" fill="none" fill-rule="evenodd">
        <g id="Home_01" transform="translate(-429.000000, -2137.000000)">
            <g id="section_3" transform="translate(334.000000, 1997.000000)">
                <g id="Group-4" transform="translate(0.000000, 107.000000)">
                    <g id="Group" transform="translate(95.245283, 33.500000)">
                        <g id="Group-3">
                            <mask id="mask-3" fill="white">
                                <use xlink:href="#path-2"></use>
                            </mask>
                            <g id="Clip-2"></g>
                            <path d="M76.8751523,68.3073408 L8.63411468,68.3073408 C5.25482193,68.3073408 2.50532621,65.5578451 2.50532621,62.1783853 C2.50532621,62.0462799 2.61271403,61.9388921 2.74448541,61.9388921 C7.02112618,61.9388921 25.6765457,61.9390591 28.0151953,61.9390591 L28.0151953,62.8708113 C28.0151953,64.7907653 29.5775796,66.3531496 31.4975336,66.3531496 L54.0122344,66.3531496 C55.9321884,66.3531496 57.4945727,64.7909323 57.4945727,62.8708113 L57.4945727,61.9390591 C59.8330553,61.9390591 78.4886418,61.9388921 82.7652826,61.9388921 C82.897054,61.9388921 83.0044418,62.0462799 83.0044418,62.1783853 C83.0041078,65.5578451 80.254612,68.3073408 76.8751523,68.3073408 Z M30.5203545,61.9392261 L54.9889124,61.9392261 L54.9889124,62.8709783 C54.9889124,63.4097546 54.5506766,63.8479904 54.0119004,63.8479904 L31.4973666,63.8479904 C30.9585904,63.8479904 30.5203545,63.4097546 30.5203545,62.8709783 L30.5203545,61.9392261 Z M82.7649486,59.4338999 L81.4711173,59.4338999 C82.0581596,58.5495787 82.4010324,57.4900634 82.4010324,56.351552 L82.4010324,48.5120739 C82.4010324,47.8199819 81.8403778,47.2593272 81.1482858,47.2593272 C80.4563608,47.2593272 79.8957062,47.8199819 79.8957062,48.5120739 L79.8957062,56.351552 C79.8957062,58.05005 78.5146955,59.4320628 76.8168656,59.4338999 L56.571004,59.4338999 C56.3472098,59.372941 29.2180057,59.3579101 28.938597,59.4338999 L8.69240139,59.4338999 C6.99457149,59.4320628 5.61356073,58.05005 5.61356073,56.351552 L5.61356073,5.63176489 C5.61356073,3.93226489 6.9962416,2.54975103 8.69557459,2.54975103 L76.8136924,2.54975103 C78.5130254,2.54975103 79.8957062,3.93226489 79.8957062,5.63176489 L79.8957062,42.6662014 C79.8957062,43.3582933 80.4563608,43.918948 81.1482858,43.918948 C81.8403778,43.918948 82.4010324,43.3582933 82.4010324,42.6662014 L82.4010324,5.63176489 C82.4010324,2.55092011 79.8945371,0.0444248231 76.8136924,0.0444248231 L8.69557459,0.0444248231 C5.61472981,0.0444248231 3.10823452,2.55092011 3.10823452,5.63176489 L3.10823452,56.351552 C3.10823452,57.4900634 3.45127432,58.5495787 4.03831663,59.4338999 L2.7443184,59.4338999 C1.23103523,59.4338999 0,60.6651022 0,62.1783853 C0,66.9391899 3.87331014,70.8125 8.63411468,70.8125 L76.8751523,70.8125 C81.6361238,70.8125 85.509267,66.9391899 85.509267,62.1783853 C85.509434,60.6651022 84.2783987,59.4338999 82.7649486,59.4338999 Z" id="Fill-1" fill="url(#linearGradient-1)" mask="url(#mask-3)"></path>
                        </g>
                        <path d="M12.6179858,10.4692273 C12.5543548,10.8124341 12.6229962,11.1327605 12.8048707,11.4094971 C13.6654764,12.6690911 15.5809211,11.6017263 15.0027304,10.2354124 C14.5576471,9.12245371 12.8798585,9.23384979 12.6179858,10.4692273" id="Fill-4" fill="url(#linearGradient-1)"></path>
                        <path d="M17.1790457,9.67241966 C16.6402695,10.0266492 16.4271639,10.7913908 16.8333337,11.40933 C17.1955797,11.9586279 17.9628265,12.1543644 18.5704111,11.755042 C19.0782904,11.4201857 19.2544866,10.7626649 19.0313604,10.2350784 C18.9637211,10.0750823 17.8504284,9.22967453 17.1790457,9.67241966" id="Fill-5" fill="url(#linearGradient-1)"></path>
                        <path d="M20.6481902,10.7147329 C20.6481902,11.4024826 21.2075087,11.9673125 21.9009368,11.9673125 C22.7931075,11.9673125 23.4028632,11.0540985 23.0583203,10.2354124 C22.5253894,8.97815654 20.6481902,9.34908712 20.6481902,10.7147329" id="Fill-6" fill="url(#linearGradient-1)"></path>
                        <path d="M25.4108318,10.7145659 C25.4108318,11.4064909 25.9714864,11.9671455 26.6635784,11.9671455 L71.5428374,11.9671455 C72.2347624,11.9671455 72.795417,11.4064909 72.795417,10.7145659 C72.795417,10.0226409 72.2347624,9.46181928 71.5428374,9.46181928 L26.6635784,9.46181928 C25.9714864,9.46181928 25.4108318,10.0226409 25.4108318,10.7145659" id="Fill-7" fill="url(#linearGradient-1)"></path>
                        <path d="M35.8753828,23.7960062 C35.3190705,24.6337314 34.8222139,25.5743352 34.3950007,26.6017845 C33.565292,26.7390672 32.7551235,26.8975603 31.9668334,27.0765957 C33.0544065,25.7580469 34.3804708,24.6447541 35.8753828,23.7960062 Z M53.5424335,27.0765957 C52.7541434,26.8977273 51.9439749,26.7390672 51.1142662,26.6017845 C50.6870531,25.5741682 50.1903635,24.6335644 49.6340511,23.7960062 C51.1289631,24.6447541 52.4550274,25.7580469 53.5424335,27.0765957 Z M49.6340511,48.1224381 C50.1903635,47.2847129 50.6872201,46.3441091 51.1144332,45.3164928 C51.944142,45.1792101 52.7543104,45.02055 53.5427675,44.8416816 C52.4550274,46.1602304 51.1291302,47.2735231 49.6340511,48.1224381 Z M31.9668334,44.8416816 C32.7551235,45.020717 33.565459,45.1792101 34.3951677,45.3164928 C34.8223809,46.3441091 35.3190705,47.2848799 35.8755498,48.1224381 C34.3803038,47.2735231 33.0542395,46.1602304 31.9668334,44.8416816 Z M32.6881523,34.7066425 L28.8332133,34.7066425 C28.9761744,33.1065139 29.3900267,31.5840451 30.0281742,30.1836611 C31.110069,29.8496399 32.2697907,29.5617136 33.4846259,29.3205503 C33.0482272,30.9829739 32.7723256,32.794538 32.6881523,34.7066425 Z M41.5019704,28.4647879 L41.5019704,34.7066425 L35.1993239,34.7066425 C35.3063777,32.6026428 35.6786443,30.6167196 36.2529938,28.8666154 C37.9456464,28.6439903 39.7099465,28.5082106 41.5019704,28.4647879 Z M41.5019704,22.1823496 L41.5019704,25.9581256 C40.0964091,25.9895236 38.7174024,26.0733629 37.3756392,26.2084745 C38.4782432,24.1458934 39.9147015,22.692233 41.5019704,22.1823496 Z M44.0072966,25.9581256 L44.0072966,22.1823496 C45.5945654,22.692066 47.0311907,24.1457264 48.1336278,26.2084745 C46.7918645,26.0733629 45.4128579,25.9895236 44.0072966,25.9581256 Z M50.3099431,34.7066425 L44.0072966,34.7066425 L44.0072966,28.4647879 C45.7993205,28.5082106 47.5636206,28.6439903 49.2562731,28.8666154 C49.8307897,30.6167196 50.2030563,32.6026428 50.3099431,34.7066425 Z M56.6760537,34.7066425 L52.8211147,34.7066425 C52.7371083,32.794538 52.4612068,30.9829739 52.0246411,29.3205503 C53.2394763,29.5617136 54.399198,29.8498069 55.4810927,30.1836611 C56.1192403,31.5840451 56.5332596,33.1065139 56.6760537,34.7066425 Z M52.8211147,37.2118017 L56.6760537,37.2118017 C56.5330926,38.8119304 56.1192403,40.3340652 55.4812597,41.7344491 C54.399365,42.0684704 53.2396433,42.3565637 52.0246411,42.597894 C52.4612068,40.9354704 52.7371083,39.1239062 52.8211147,37.2118017 Z M44.0072966,43.4536564 L44.0072966,37.2118017 L50.3099431,37.2118017 C50.2028893,39.3158014 49.8306226,41.3015576 49.2562731,43.0518289 C47.5636206,43.274454 45.7994875,43.4102336 44.0072966,43.4536564 Z M44.0072966,49.7360946 L44.0072966,45.9603187 C45.4126909,45.9289207 46.7918645,45.8450814 48.1336278,45.7099698 C47.0313578,47.7727179 45.5947325,49.2263782 44.0072966,49.7360946 Z M41.5019704,45.9603187 L41.5019704,49.7360946 C39.9145345,49.2263782 38.4780762,47.7727179 37.3754721,45.7099698 C38.7175694,45.8450814 40.0965761,45.9289207 41.5019704,45.9603187 Z M35.1993239,37.2118017 L41.5019704,37.2118017 L41.5019704,43.4536564 C39.7099465,43.4102336 37.9456464,43.274287 36.2529938,43.0518289 C35.6786443,41.3015576 35.3063777,39.3158014 35.1993239,37.2118017 Z M28.8333803,37.2118017 L32.6883193,37.2118017 C32.7723256,39.1239062 33.0482272,40.9353034 33.4847929,42.597727 C32.2699577,42.3563967 31.110069,42.0683034 30.0281742,41.7342821 C29.3901937,40.3340652 28.9763414,38.8119304 28.8333803,37.2118017 Z M42.75455,52.4448398 C55.3483193,52.4448398 63.0354838,38.7650004 57.4827149,28.5579798 C51.3687904,16.4408588 34.0882022,16.4674135 28.0050077,28.5963922 C22.6017133,39.403315 30.3428222,52.4448398 42.75455,52.4448398 Z" id="Fill-8" fill="url(#linearGradient-1)"></path>
                        <path d="M62.2603875,4.5540454 L10.2263939,4.5540454 C8.78809847,4.5540454 7.61802211,5.72412176 7.61802211,7.16241716 C7.61802211,8.79895416 7.61802211,54.3116844 7.61802211,54.8214008 C7.61802211,56.2595292 8.78809847,57.4297726 10.2263939,57.4297726 L75.2832071,57.4297726 C76.7215025,57.4297726 77.8915789,56.2595292 77.8915789,54.8214008 L77.8915789,15.4960797 C77.8915789,14.4470861 77.8915789,8.1875283 77.8915789,7.16241716 C77.8915789,5.72412176 76.7215025,4.5540454 75.2832071,4.5540454 L68.106093,4.5540454 C67.414001,4.5540454 66.8533464,5.11470003 66.8533464,5.806625 C66.8533464,6.49854997 67.414001,7.05937161 68.106093,7.05937161 C75.8283297,7.05970563 75.3862527,7.01494679 75.3862527,7.16258417 L75.3862527,14.2433331 L20.7974976,14.2433331 C20.1054057,14.2433331 19.544751,14.8041548 19.544751,15.4960797 C19.544751,16.1880047 20.1054057,16.7486593 20.7974976,16.7486593 L75.3862527,16.7486593 C75.3383206,56.2553539 75.486793,54.9242793 75.2832071,54.9242793 C7.31055557,54.8760133 10.1233483,55.0253208 10.1233483,54.8212338 L10.1233483,16.7486593 L14.9516251,16.7486593 C15.6437171,16.7486593 16.2043718,16.1880047 16.2043718,15.4960797 C16.2043718,14.8041548 15.6437171,14.2433331 14.9516251,14.2433331 L10.1231813,14.2433331 C10.1701113,6.95515699 10.0251461,7.0592046 10.2262269,7.0592046 C11.3405217,7.0592046 59.9155585,7.05903759 62.2602205,7.05903759 C62.9521455,7.05903759 63.5128001,6.49838296 63.5128001,5.80645799 C63.5128001,5.11453302 62.9521455,4.5540454 62.2603875,4.5540454" id="Fill-9" fill="url(#linearGradient-1)"></path>
                    </g>
                </g>
            </g>
        </g>
    </g>
</svg>