<?xml version="1.0" encoding="UTF-8"?>
<svg width="64px" height="80px" viewBox="0 0 64 80" version="1.1" xmlns="http://www.w3.org/2000/svg" xmlns:xlink="http://www.w3.org/1999/xlink">
    <!-- Generator: Sketch 51.2 (57519) - http://www.bohemiancoding.com/sketch -->
    <title>Group 6</title>
    <desc>Created with Sketch.</desc>
    <defs>
        <polygon id="path-1" points="0 0.138681734 49.868791 0.138681734 49.868791 65.9999387 0 65.9999387"></polygon>
        <linearGradient x1="0%" y1="3.28741776%" x2="96.9472164%" y2="97.0394737%" id="linearGradient-3">
            <stop stop-color="#54E490" offset="0%"></stop>
            <stop stop-color="#36BF70" offset="100%"></stop>
        </linearGradient>
    </defs>
    <g id="Page-1" stroke="none" stroke-width="1" fill="none" fill-rule="evenodd">
        <g id="Home_01" transform="translate(-1361.000000, -3711.000000)">
            <g id="Group-6" transform="translate(1361.000000, 3711.000000)">
                <g id="Group-3" transform="translate(0.000000, 14.000000)">
                    <mask id="mask-2" fill="white">
                        <use xlink:href="#path-1"></use>
                    </mask>
                    <g id="Clip-2"></g>
                    <path d="M45.426168,59.6735424 C45.426168,60.7199387 44.573709,61.5699697 43.5243238,61.5699697 L6.31161885,61.5699697 C5.26223361,61.5699697 4.40977459,60.7199387 4.40977459,59.6735424 L4.40977459,6.44852693 C4.40977459,5.40192632 5.26223361,4.55271269 6.31161885,4.55271269 L43.5243238,4.55271269 C44.573709,4.55271269 45.426168,5.40192632 45.426168,6.44852693 L45.426168,59.6735424 Z M43.541127,0.138681734 L6.32760246,0.138681734 C2.8360041,0.138681734 -6.14754098e-05,2.96666935 -6.14754098e-05,6.44852693 L-6.14754098e-05,59.6902978 C-6.14754098e-05,63.1719511 2.8360041,65.9999387 6.32760246,65.9999387 L43.541127,65.9999387 C47.0327254,65.9999387 49.868791,63.1719511 49.868791,59.6902978 L49.868791,6.44852693 C49.8528074,2.96666935 47.0167418,0.138681734 43.541127,0.138681734 Z" id="Fill-1" fill="url(#linearGradient-3)" mask="url(#mask-2)"></path>
                </g>
                <path d="M57.6556953,0 L20.3443047,0 C16.843524,0 14,2.83395383 14,6.32295235 C14,7.55154505 14.9855769,8.53462398 16.2183185,8.53462398 C17.4510602,8.53462398 18.4374589,7.55154505 18.4374589,6.32295235 C18.4374589,5.27516754 19.2921598,4.42334326 20.3443047,4.42334326 L57.6556953,4.42334326 C58.7070184,4.42334326 59.5617193,5.27516754 59.5617193,6.32295235 L59.5617193,59.6770477 C59.5617193,60.7250372 58.7070184,61.5768615 57.6556953,61.5768615 C56.4229536,61.5768615 55.4365549,62.5599404 55.4365549,63.7885331 C55.4365549,65.0171258 56.4229536,66 57.6556953,66 C61.156476,66 64,63.1660462 64,59.6770477 L64,6.32295235 C64,2.83395383 61.156476,0 57.6556953,0" id="Fill-4" fill="url(#linearGradient-3)"></path>
            </g>
        </g>
    </g>
</svg>