<?xml version="1.0" encoding="UTF-8"?>
<svg width="84px" height="84px" viewBox="0 0 84 84" version="1.1" xmlns="http://www.w3.org/2000/svg" xmlns:xlink="http://www.w3.org/1999/xlink">
    <!-- Generator: Sketch 51.2 (57519) - http://www.bohemiancoding.com/sketch -->
    <title>Group 7</title>
    <desc>Created with Sketch.</desc>
    <defs>
        <linearGradient x1="0%" y1="3.28741776%" x2="96.9472164%" y2="97.0394737%" id="linearGradient-1">
            <stop stop-color="#54E490" offset="0%"></stop>
            <stop stop-color="#36BF70" offset="100%"></stop>
        </linearGradient>
    </defs>
    <g id="Page-1" stroke="none" stroke-width="1" fill="none" fill-rule="evenodd">
        <g id="Home_01" transform="translate(-917.000000, -3709.000000)" fill="url(#linearGradient-1)">
            <g id="Group-7" transform="translate(917.000000, 3709.000000)">
                <path d="M2.79989063,75.6001641 L81.2001094,75.6001641 L81.2001094,2.79989062 L2.79989063,2.79989062 L2.79989063,75.6001641 Z M81.2001094,81.2001094 L76.6934766,81.2001094 L75.9935859,78.4000547 L81.2001094,78.4000547 L81.2001094,81.2001094 Z M7.30652344,81.2001094 L2.79989062,81.2001094 L2.79989062,78.4000547 L8.00641406,78.4000547 L7.30652344,81.2001094 Z M82.5997266,0 L1.40027344,0 C0.62671875,0 0,0.62671875 0,1.40027344 L0,82.6003828 C0,83.3732812 0.62671875,84 1.40027344,84 L8.39983594,84 C9.04263281,84 9.60274219,83.5622812 9.75794531,82.9386797 L10.8934219,78.4000547 L73.1065781,78.4000547 L74.2420547,82.9386797 C74.3979141,83.5622812 74.9573672,84 75.6001641,84 L82.6003828,84 C83.3732812,84 84,83.3732812 84,82.6003828 L84,1.40027344 C84,0.62671875 83.3732812,0 82.5997266,0 Z" id="Fill-1"></path>
                <path d="M7.79235404,41.3635906 L13.3772257,41.3635906 L13.3772257,35.6364094 L7.79235404,35.6364094 L7.79235404,41.3635906 Z M11.9807215,9.8636745 L73.4151283,9.8636745 L73.4151283,17.0229446 L70.6227743,17.0229446 C69.8513018,17.0229446 69.22627,17.663903 69.22627,18.4550336 L69.22627,27.0457215 C69.22627,27.8361809 69.8513018,28.4771393 70.6227743,28.4771393 L73.4151283,28.4771393 L73.4151283,48.5228607 L70.6227743,48.5228607 C69.8513018,48.5228607 69.22627,49.1638191 69.22627,49.9542785 L69.22627,58.5449664 C69.22627,59.336097 69.8513018,59.9772232 70.6227743,59.9772232 L73.4151283,59.9772232 L73.4151283,67.1364933 L11.9807215,67.1364933 L11.9807215,44.2270973 L14.7730755,44.2270973 C15.544548,44.2270973 16.1695798,43.5861389 16.1695798,42.7956795 L16.1695798,34.2043205 C16.1695798,33.4138611 15.544548,32.7729027 14.7730755,32.7729027 L11.9807215,32.7729027 L11.9807215,9.8636745 Z M72.018624,25.6136326 L76.207646,25.6136326 L76.207646,19.8864513 L72.018624,19.8864513 L72.018624,25.6136326 Z M72.018624,57.1135487 L76.207646,57.1135487 L76.207646,51.3863674 L72.018624,51.3863674 L72.018624,57.1135487 Z M6.39584978,44.2270973 L9.18820382,44.2270973 L9.18820382,68.5679111 C9.18820382,69.3590416 9.81339922,70 10.5847081,70 L74.8111417,70 C75.5824506,70 76.207646,69.3590416 76.207646,68.5679111 L76.207646,59.9772232 L77.6034957,59.9772232 C78.3749682,59.9772232 79,59.336097 79,58.5449664 L79,49.9542785 C79,49.1638191 78.3749682,48.5228607 77.6034957,48.5228607 L76.207646,48.5228607 L76.207646,28.4771393 L77.6034957,28.4771393 C78.3749682,28.4771393 79,27.8361809 79,27.0457215 L79,18.4550336 C79,17.663903 78.3749682,17.0229446 77.6034957,17.0229446 L76.207646,17.0229446 L76.207646,8.43208893 C76.207646,7.64112616 75.5824506,7 74.8111417,7 L10.5847081,7 C9.81339922,7 9.18820382,7.64112616 9.18820382,8.43208893 L9.18820382,32.7729027 L6.39584978,32.7729027 C5.62503178,32.7729027 5,33.4138611 5,34.2043205 L5,42.7956795 C5,43.5861389 5.62503178,44.2270973 6.39584978,44.2270973 Z" id="Fill-3"></path>
                <path d="M42,26.9997363 C43.6569302,26.9997363 44.9999121,28.3435184 44.9999121,30.0003515 C44.9999121,31.6564816 43.6569302,33.0000879 42,33.0000879 C40.3430698,33.0000879 39.0000879,31.6564816 39.0000879,30.0003515 C39.0000879,28.3435184 40.3430698,26.9997363 42,26.9997363 M42,36 C45.3138605,36 48,33.313139 48,30.0003515 C48,26.6866852 45.3138605,24 42,24 C38.6861395,24 36,26.6866852 36,30.0003515 C36,33.313139 38.6861395,36 42,36" id="Fill-4"></path>
                <path d="M42.5642408,50.6000544 L50.900762,50.6000544 C51.6552063,50.6000544 52.2669611,51.2267741 52.2669611,51.9996737 C52.2669611,52.7732296 51.6552063,53.3999493 50.900762,53.3999493 L42.5642408,53.3999493 C42.7482477,52.4759479 42.7482477,51.5235636 42.5642408,50.6000544 M35.8682476,56.2000082 C33.6042742,56.2000082 31.7682089,54.319685 31.7682089,51.9996737 C31.7682089,49.6804827 33.6042742,47.8001595 35.8682476,47.8001595 C38.132221,47.8001595 39.9682863,49.6804827 39.9682863,51.9996737 C39.9682863,54.319685 38.132221,56.2000082 35.8682476,56.2000082 M35.8682476,45.0001006 C32.0949052,44.9795927 29.0194758,48.0974412 29.0000982,51.9632518 C28.98008,55.8295545 32.0236405,58.9793952 35.7977837,58.9999031 C37.960225,59.0115515 40.0014364,57.9727062 41.2989332,56.2000082 L50.900762,56.2000082 C53.1645753,56.2000082 55,54.319685 55,51.9996737 C55,49.6804827 53.1645753,47.8001595 50.900762,47.8001595 L41.2989332,47.8001595 C40.0195328,46.0435397 38.0077881,45.006499 35.8682476,45.0001006" id="Fill-5"></path>
                <path d="M33.789537,27.6317435 L31.839533,27.6317435 C32.0755861,25.8689257 32.7691525,24.1983138 33.8509557,22.78652 L35.2196468,24.1627142 C35.7539736,24.6976693 36.62025,24.6976693 37.1552182,24.1633557 C37.689545,23.6290421 37.6901865,22.7626267 37.1558597,22.2276717 L35.7789901,20.8514775 C37.192743,19.7684181 38.8659619,19.0750291 40.6312287,18.8394629 L40.6312287,20.7895792 C40.6312287,21.5455078 41.2444536,22.1582366 41.9999198,22.1582366 C42.755386,22.1582366 43.368611,21.5455078 43.368611,20.7895792 L43.368611,18.8394629 C45.1314723,19.076312 46.8021254,19.7697009 48.213954,20.8514775 L46.8370844,22.2276717 C46.3027576,22.7626267 46.3033991,23.6290421 46.8377258,24.1633557 C47.372694,24.6976693 48.2389705,24.6976693 48.7734576,24.1627142 L50.1421487,22.78652 C51.2239519,24.1983138 51.917358,25.8684446 52.1535715,27.6317435 L50.2103027,27.6317435 C49.4549968,27.6317435 48.842253,28.2443119 48.842253,29.0004009 C48.842253,29.7558484 49.4549968,30.3684168 50.2103027,30.3684168 L52.160467,30.3684168 C51.9242535,32.1310743 51.2306872,33.8016862 50.1490443,35.2142817 L48.7801928,33.8374461 C48.245866,33.3024911 47.3795896,33.3024911 46.8446214,33.8368047 C46.3102946,34.3711183 46.3096532,35.2373733 46.8439799,35.7723283 L48.2208495,37.1485225 C46.8070966,38.2315819 45.1338777,38.9249709 43.368611,39.1605371 L43.368611,37.2105812 C43.368611,36.4544922 42.755386,35.8419238 41.9999198,35.8419238 C41.2444536,35.8419238 40.6312287,36.4544922 40.6312287,37.2105812 L40.6312287,39.1605371 C38.8685277,38.9238484 37.1978746,38.2302991 35.7858857,37.1485225 L37.1627553,35.7723283 C37.697082,35.2373733 37.6964406,34.3711183 37.1621138,33.8368047 C36.6271456,33.3024911 35.7608692,33.3024911 35.2265424,33.8374461 L33.8578513,35.2142817 C32.7758877,33.8016862 32.0824817,32.1317158 31.8464285,30.3684168 L33.789537,30.3684168 C34.5450032,30.3684168 35.1575867,29.7558484 35.1575867,29.0004009 C35.1575867,28.2443119 34.5450032,27.6317435 33.789537,27.6317435 M41.9999198,42 C49.1799757,42 55,36.1794778 55,29.0004009 C55,21.8205222 49.1799757,16 41.9999198,16 C34.8200243,16 29,21.8205222 29,29.0004009 C29.0080181,36.176431 34.8237126,41.9911803 41.9999198,42" id="Fill-6"></path>
            </g>
        </g>
    </g>
</svg>